# xmcd CD database file
#
# Track frame offsets:
#	150
#	22932
#	45512
#	68385
#	85080
#
# Disc length: 1375 seconds
#
# Revision: 2
# Processed by: cddbd v1.4PL0 Copyright (c) Steve Scherf et al.
# Submitted via: CDex 1.51
#
DISCID=2a055d05
DTITLE=ScareFace - Smile Single
DYEAR=1900
DGENRE=Rap
TTITLE0=Smile
TTITLE1=Smile (Instrumental)
TTITLE2=Smile (Acappella)
TTITLE3=Untouchable
TTITLE4=Untouchable (Intrumental)
EXTD=
EXTT0=
EXTT1=
EXTT2=
EXTT3=
EXTT4=
PLAYORDER=
